<?xml version="1.0" encoding="UTF-8"?>
<svg id="Layer_1" data-name="Layer 1" xmlns="http://www.w3.org/2000/svg" viewBox="0 0 638.77 150" width="638.77" height="150">
  <path d="M43.53,30.53l8.75,17.73c.44.89,1.28,1.5,2.26,1.64l19.57,2.84c2.46.36,3.44,3.38,1.66,5.12l-14.16,13.8c-.71.69-1.03,1.68-.86,2.66l3.34,19.49c.42,2.45-2.15,4.32-4.35,3.16l-17.5-9.2c-.87-.46-1.92-.46-2.79,0l-17.5,9.2c-2.2,1.16-4.77-.71-4.35-3.16l3.34-19.49c.17-.97-.16-1.97-.86-2.66l-14.16-13.8c-1.78-1.74-.8-4.76,1.66-5.12l19.57-2.84c.98-.14,1.82-.76,2.26-1.64l8.75-17.73c1.1-2.23,4.28-2.23,5.38,0Z" fill="none" stroke="#4a3428" stroke-miterlimit="10" stroke-width="10"/>
  <g>
    <path d="M163.03,104.41c-3.48-3.38-7.92-9.9-13.44-19.8-10.2-17.92-10.92-18.67-19.92-18.17h-.72v19.3c0,10.15,2.16,13.16,9.72,13.16h2.28v5.51h-41.52v-5.51h1.92c7.68,0,9.84-3.01,9.84-13.16v-46.62c-.12-10.4-2.04-12.91-9.96-12.78h-1.56v-5.52l17.16-.25c.36,0,1.92-.13,4.2-.25,1.92-.13,4.08-.13,6.48-.13,15.24,0,26.52,1.38,31.68,4.01,7.56,3.63,11.76,10.28,11.76,18.3,0,10.4-6,17.05-18.48,20.68,4.2,2.76,6.6,5.77,15,18.8,8.52,12.91,12.48,16.54,18.6,16.92h.72v5.51h-23.76ZM130.75,60.41h.72c7.56,0,11.52-.63,14.4-2.51,4.08-2.38,6.24-7.52,6.24-14.79,0-4.01-.72-7.27-2.16-9.78-2.76-5.14-7.2-6.89-17.04-6.89-1.32,0-2.4,0-3.96.13v33.84h1.8Z" fill="#4a3428"/>
    <path d="M234.91,94.25c-3.96,7.39-12.6,12.16-22.32,12.16-15.48,0-26.76-11.53-26.76-27.45s11.16-27.07,26.4-27.07c13.92,0,23.76,9.53,23.76,23.19v.88h-33.36c-.12,1.38-.12,2.26-.12,3.38,0,13.41,5.04,20.81,14.16,20.81,5.52,0,10.56-3.01,13.68-8.27l4.56,2.38ZM220.39,71.07c.12-.63.12-1,.12-1.63,0-7.52-3.24-12.16-8.52-12.16-2.76,0-5.52,1.5-6.84,3.63-1.44,2.38-1.92,4.64-2.4,10.15h17.64Z" fill="#4a3428"/>
    <path d="M263.35,105.66l-17.04-36.85c-3.96-8.27-5.04-9.53-8.64-9.65h-.48v-5.26h28.32v5.26h-.72c-3,0-4.8,1-4.8,2.51,0,.88.6,2.63,1.56,4.76l11.16,24.69,10.92-23.81c.96-2.13,1.56-4.14,1.56-5.14,0-1.63-1.92-2.88-4.56-3.01h-.6v-5.26h17.76v5.26h-.6c-3.84.75-5.16,2.38-9.6,12.28l-15.96,34.22h-8.28Z" fill="#4a3428"/>
    <path d="M324.91,88.74c.24,8.4,1.56,10.28,7.32,10.4h.72v5.26h-32.64v-5.26h1.56c6-.13,7.32-1.88,7.56-10.4v-17.3c0-7.9-1.68-10.15-7.68-10.03h-1.44v-5.39c4.68-.38,19.92-3.13,23.76-4.14h.84v36.85ZM325.99,29.08c0,5.26-4.08,9.53-9.12,9.53s-9-4.39-9-9.78,4.08-9.4,9.12-9.4,9,4.26,9,9.65Z" fill="#4a3428"/>
    <path d="M385.63,94.25c-3.96,7.39-12.6,12.16-22.32,12.16-15.48,0-26.76-11.53-26.76-27.45s11.16-27.07,26.4-27.07c13.92,0,23.76,9.53,23.76,23.19v.88h-33.36c-.12,1.38-.12,2.26-.12,3.38,0,13.41,5.04,20.81,14.16,20.81,5.52,0,10.56-3.01,13.68-8.27l4.56,2.38ZM371.11,71.07c.12-.63.12-1,.12-1.63,0-7.52-3.24-12.16-8.52-12.16-2.76,0-5.52,1.5-6.84,3.63-1.44,2.38-1.92,4.64-2.4,10.15h17.64Z" fill="#4a3428"/>
    <path d="M447.9,105.78l-14.52-34.97-14.16,34.97h-7.8l-15-37.85c-3.24-7.77-3.96-8.52-8.04-8.77h-.6v-5.26h28.92v5.26h-.6c-3.72,0-5.64.88-5.64,2.63,0,.63.6,2.38,1.68,5.39l8.28,21.68,14.4-34.97h7.56l14.4,34.97,8.4-22.56c1.08-3.01,1.2-3.13,1.2-3.89,0-2.01-2.16-3.13-5.88-3.26h-.72v-5.26h19.2v5.26h-.24c-4.56.38-5.64,1.75-9.24,11.28l-13.8,35.34h-7.8Z" fill="#4a3428"/>
    <path d="M553.63,41.74h-5.62c-1.17-3.43-2.31-6.11-3.43-8.05-1.11-1.94-2.3-3.35-3.54-4.22-1.25-.88-2.71-1.43-4.37-1.65-1.66-.22-4.25-.34-7.76-.34h-6.74l-9.08,30.91h3.81c3.05,0,5.45-.25,7.21-.73,1.76-.49,3.19-1.24,4.31-2.26,1.11-1.02,1.97-2.19,2.58-3.52.6-1.33,1.32-3.27,2.14-5.84h5.74l-9.61,32.68h-5.74c1.05-3.22,1.58-5.73,1.58-7.53,0-4.49-3.01-6.73-9.02-6.73h-4.8l-6.74,23.07c-.7,2.57-1.05,4.37-1.05,5.39,0,1.55.43,2.75,1.29,3.61.86.86,1.88,1.45,3.08,1.77,1.19.33,2.22.49,3.08.49h2.75l-1.7,5.63h-34.92l1.7-5.63c2.77,0,4.79-.83,6.06-2.48,1.27-1.65,2.29-3.93,3.08-6.82l15.12-51.9c.7-2.45,1.05-4.06,1.05-4.83,0-2.49-.81-4.06-2.43-4.71-1.62-.65-3.53-.98-5.71-.98l1.41-5.63h55.72l.59,20.32Z" fill="#c9a961"/>
    <path d="M579.41,19.95l-20.51,70.2c-1.05,3.47-1.58,5.63-1.58,6.49,0,.69.16,1.25.47,1.65.31.41.72.61,1.23.61,1.02,0,2.42-.96,4.22-2.88,1.8-1.92,3.22-4.1,4.28-6.55h5.51c-1.91,3.79-4.47,7.53-7.68,11.2s-7.21,5.51-12.01,5.51c-2.93,0-5.28-.85-7.06-2.54-1.78-1.69-2.67-3.74-2.67-6.15,0-1.88.61-4.96,1.82-9.24l15-51.04c.98-3.35,1.46-5.57,1.46-6.67,0-1.43-.56-2.37-1.67-2.82-1.11-.45-3.19-.67-6.24-.67l1.41-5.63h6.27c2.7,0,5.16-.1,7.38-.31,2.23-.2,4.36-.59,6.39-1.16h3.98Z" fill="#c9a961"/>
    <path d="M633.38,74.05c0,4.08-.77,8.06-2.31,11.93-1.54,3.88-3.78,7.34-6.71,10.4-2.93,3.06-6.35,5.46-10.25,7.19-3.91,1.73-8.2,2.6-12.89,2.6s-8.59-.93-12.07-2.78c-3.48-1.86-6.17-4.47-8.09-7.83-1.92-3.37-2.87-7.19-2.87-11.47,0-5.47,1.44-10.65,4.34-15.54,2.89-4.9,6.83-8.79,11.81-11.69,4.98-2.9,10.36-4.35,16.14-4.35,4.8,0,8.94.99,12.42,2.97,3.48,1.98,6.09,4.62,7.85,7.93,1.76,3.31,2.64,6.85,2.64,10.65ZM619.49,69.83c0-3.79-.77-6.77-2.31-8.94-1.54-2.16-3.82-3.24-6.83-3.24s-5.55,1.14-7.85,3.43c-2.31,2.29-4.22,5.15-5.74,8.6-1.52,3.45-2.68,6.92-3.46,10.4-.78,3.49-1.17,6.5-1.17,9.03,0,3.51.76,6.38,2.29,8.6s3.67,3.33,6.45,3.33c3.08,0,5.82-1.12,8.2-3.37,2.38-2.24,4.34-5.09,5.89-8.54,1.54-3.45,2.68-6.95,3.43-10.5.74-3.55,1.11-6.49,1.11-8.81Z" fill="#c9a961"/>
  </g>
</svg>